<?xml version="1.0"?>
<svg xmlns="http://www.w3.org/2000/svg" xmlns:xlink="http://www.w3.org/1999/xlink" version="1.1" id="Capa_1" x="0px" y="0px" viewBox="0 0 384 384" style="enable-background:new 0 0 384 384;" xml:space="preserve" width="512px" height="512px"><g><g>
	<g>
		<g>
			<polygon points="189.44,0 0,189.44 0,249.813 249.813,0    " data-original="#000000" class="active-path" data-old_color="#000000" fill="#ABADAE"/>
			<path d="M42.667,0C19.2,0,0,19.2,0,42.667V85.44L85.44,0H42.667z" data-original="#000000" class="active-path" data-old_color="#000000" fill="#ABADAE"/>
			<polygon points="352.213,1.6 352.213,1.6 352.213,1.6    " data-original="#000000" class="active-path" data-old_color="#000000" fill="#ABADAE"/>
			<polygon points="134.187,384 194.56,384 384,194.56 384,134.187    " data-original="#000000" class="active-path" data-old_color="#000000" fill="#ABADAE"/>
			<path d="M352.213,1.6L1.6,352.213c1.92,7.36,5.653,13.973,10.88,19.2l0.107,0.107c5.227,5.227,11.84,8.96,19.2,10.88     L382.4,31.787C378.453,17.067,366.933,5.547,352.213,1.6z" data-original="#000000" class="active-path" data-old_color="#000000" fill="#ABADAE"/>
			<path d="M341.333,384c11.733,0,22.4-4.8,30.08-12.48C379.2,363.733,384,353.067,384,341.333V298.56L298.56,384H341.333z" data-original="#000000" class="active-path" data-old_color="#000000" fill="#ABADAE"/>
		</g>
	</g>
</g></g> </svg>
